<svg xmlns="http://www.w3.org/2000/svg" viewBox="0 0 192 192">
  <defs>
    <linearGradient id="bg" x1="0%" y1="0%" x2="100%" y2="100%">
      <stop offset="0%" stop-color="#fffaf5"/>
      <stop offset="100%" stop-color="#efe6da"/>
    </linearGradient>
    <linearGradient id="leaf" x1="20%" y1="20%" x2="90%" y2="90%">
      <stop offset="0%" stop-color="#7ca18a"/>
      <stop offset="100%" stop-color="#476457"/>
    </linearGradient>
  </defs>
  <rect width="192" height="192" rx="52" fill="url(#bg)"/>
  <path d="M97 49c-8 15-10 31-4 48 5 14 16 24 33 29-1-24-10-43-29-57Z" fill="url(#leaf)"/>
  <path d="M83 73c-18 8-30 20-35 37-5 17-1 34 10 49 18-14 28-32 30-53 2-13 0-24-5-33Z" fill="#91b09c"/>
  <circle cx="96" cy="96" r="78" fill="none" stroke="#d8d0c5" stroke-width="2"/>
</svg>
